<svg id="Friends_icon-SVG-098567" xmlns="http://www.w3.org/2000/svg" width="18" height="10.868" viewBox="0 0 18 10.868">
  <path id="users" d="M17.151,16.581a3.018,3.018,0,0,0-3.014-3.014H13.5a3.018,3.018,0,0,0-3.014,3.014.425.425,0,0,1-.849,0A3.868,3.868,0,0,1,13.5,12.718h.637A3.868,3.868,0,0,1,18,16.581a.425.425,0,1,1-.849,0Zm-9.637,0A3.018,3.018,0,0,0,4.5,13.567H3.863A3.018,3.018,0,0,0,.849,16.581a.425.425,0,1,1-.849,0,3.868,3.868,0,0,1,3.863-3.863H4.5a3.868,3.868,0,0,1,3.863,3.863.425.425,0,0,1-.849,0ZM10.91,9a2.866,2.866,0,1,1,2.866,2.866A2.869,2.869,0,0,1,10.91,9Zm.849,0a2.017,2.017,0,1,0,2.016-2.017A2.019,2.019,0,0,0,11.759,9ZM1.274,9a2.866,2.866,0,1,1,2.866,2.866A2.869,2.869,0,0,1,1.274,9Zm.849,0A2.017,2.017,0,1,0,4.139,6.986,2.019,2.019,0,0,0,2.123,9Z" transform="translate(0 -6.137)"/>
</svg>
